# xmcd CD database file
#
# Track frame offsets:
#	150
#	34744
#	60960
#	82238
#	113668
#	116817
#	136405
#	151535
#	178048
#	204379
#	227785
#	231391
#	257864
#	278832
#	295634
#
# Disc length: 4323 seconds
#
# Revision: 0
# Processed by: cddbd v1.5.2PL0 Copyright (c) Steve Scherf et al.
# Submitted via: CDex 1.50Beta7
#
DISCID=cf10e10f
DTITLE=Mirco Buchwitz - lieber woanders
DYEAR=2005
DGENRE=Jazz
TTITLE0=Die Was-Passiert-Dann-Maschine
TTITLE1=Pontius Zeitvogel versteht die Welt nicht mehr
TTITLE2=Filippos Flüstern
TTITLE3=Super Sat präsentiert: Gestört um drei
TTITLE4=Klassiker. Kurz. Und. Knapp
TTITLE5=Die letzten Francs
TTITLE6=Glas voller Muscheln
TTITLE7=The Times they are a-Changin'
TTITLE8=Meinugsmache
TTITLE9=Neulich auf dem Bahnhof
TTITLE10=Klassiker. Kurz. Und. Knapp.
TTITLE11=Bessarabischer Weg 4b
TTITLE12=Iron Maiden Sommer
TTITLE13=Y cuando vuelva el verano
TTITLE14=Der Sturm über den Augen
EXTD=YEAR: 2005
EXTT0=
EXTT1=
EXTT2=
EXTT3=
EXTT4=
EXTT5=
EXTT6=
EXTT7=
EXTT8=
EXTT9=
EXTT10=
EXTT11=
EXTT12=
EXTT13=
EXTT14=
PLAYORDER=
